<svg width="12" height="12" fill="none" xmlns="http://www.w3.org/2000/svg"><g clip-path="url(#a)"><path d="M.721 7.985c.05.008.1.012.149.011h8.466l-.185.086c-.18.085-.345.202-.485.343L6.292 10.8a.889.889 0 0 0-.125 1.138.859.859 0 0 0 1.288.112l4.293-4.293a.859.859 0 0 0 0-1.215L7.455 2.248a.859.859 0 0 0-1.288.086.889.889 0 0 0 .125 1.137l2.37 2.379c.126.126.27.231.429.313l.257.116H.917A.889.889 0 0 0 .011 7a.859.859 0 0 0 .71.985Z" fill="#fff"/></g><defs><clipPath id="a"><path fill="#fff" transform="rotate(180 6 6)" d="M0 0h12v12H0z"/></clipPath></defs></svg>