<svg width="15" height="15" fill="none" xmlns="http://www.w3.org/2000/svg"><g clip-path="url(#a)"><path d="m14.908 14.025-4.357-4.358a5.907 5.907 0 0 0 1.324-3.73A5.944 5.944 0 0 0 5.937 0 5.944 5.944 0 0 0 0 5.938a5.944 5.944 0 0 0 5.938 5.937c1.412 0 2.709-.498 3.73-1.324l4.357 4.357c.122.123.32.123.442 0l.441-.441a.312.312 0 0 0 0-.442Zm-8.97-3.4A4.693 4.693 0 0 1 1.25 5.938 4.693 4.693 0 0 1 5.938 1.25a4.693 4.693 0 0 1 4.687 4.688 4.693 4.693 0 0 1-4.687 4.687Z" fill="#fff"/></g><defs><clipPath id="a"><path fill="#fff" d="M0 0h15v15H0z"/></clipPath></defs></svg>