<svg width="12" height="12" fill="none" xmlns="http://www.w3.org/2000/svg"><g clip-path="url(#a)"><path d="M11.279 7.985a.858.858 0 0 1-.149.011H2.664l.185.086c.18.085.345.202.485.343L5.708 10.8a.889.889 0 0 1 .125 1.138.859.859 0 0 1-1.288.112L.252 7.756a.859.859 0 0 1 0-1.215l4.293-4.293a.859.859 0 0 1 1.288.086c.24.359.188.839-.125 1.137L3.338 5.85c-.126.126-.27.231-.429.313l-.257.116h8.431a.889.889 0 0 1 .906.721.859.859 0 0 1-.71.985Z" fill="#fff"/></g><defs><clipPath id="a"><path fill="#fff" transform="matrix(1 0 0 -1 0 12)" d="M0 0h12v12H0z"/></clipPath></defs></svg>